PathFileType	4	(X/Y/Z)	H:\MAC\Pilotos\Biomecanica2_gait_2020\Trimmed_walk1.trc
DataRate	CameraRate	NumFrames	NumMarkers	Units	OrigDataRate	OrigDataStartFrame	OrigNumFrames
150.00	150.00	       11	28	mm	150.00	183	       364
Frame#	Time	R.ASIS			L.ASIS			R.PSIS			L.PSIS			L.Iliac.Crest			R.Iliac.Crest			R.GTR			R.Knee			R.HF			R.TT			R.Ankle			R.Heel			R.MT1			R.MT5			L.GTR			L.Knee			L.HF			L.TT			L.Ankle			L.Heel			L.MT1			L.MT5			R.Knee.Medial			R.Ankle.Medial			R.MT2			L.Knee.Medial			L.Ankle.Medial			L.MT2			
		X1	Y1	Z1	X2	Y2	Z2	X3	Y3	Z3	X4	Y4	Z4	X5	Y5	Z5	X6	Y6	Z6	X7	Y7	Z7	X8	Y8	Z8	X9	Y9	Z9	X10	Y10	Z10	X11	Y11	Z11	X12	Y12	Z12	X13	Y13	Z13	X14	Y14	Z14	X15	Y15	Z15	X16	Y16	Z16	X17	Y17	Z17	X18	Y18	Z18	X19	Y19	Z19	X20	Y20	Z20	X21	Y21	Z21	X22	Y22	Z22	X23	Y23	Z23	X24	Y24	Z24	X25	Y25	Z25	X26	Y26	Z26	X27	Y27	Z27	X28	Y28	Z28	

183	1.213	1250.97351	1024.74438	-476.12946	1253.83789	1030.99878	-244.89783	1064.25391	1064.73169	-392.06186	1064.37280	1063.01782	-294.80237	1170.42664	1091.39978	-194.83112	1165.41345	1087.50928	-516.40991	1135.81311	954.40125	-533.60510	1054.26440	540.83905	-467.11072	1031.84839	477.75861	-465.52292	1096.17786	439.78366	-422.04050	931.87115	83.70303	-419.60349	876.64081	68.10838	-367.47278	1093.80103	44.60868	-358.38806	1050.56018	31.94255	-436.76627	1193.61951	939.62793	-171.78903	1310.93359	535.20239	-219.52390	1318.03882	474.56113	-216.51619	1396.04077	464.07379	-262.36548	1410.15430	88.68411	-240.80405	1371.12512	43.50277	-300.28879	1583.45313	95.07856	-290.67484	1537.15100	68.63124	-222.47859	1077.40149	532.65704	-331.34058	959.08478	107.37252	-333.80219	1091.33960	36.94696	-388.71899	1342.73206	534.15997	-346.57703	1447.28406	114.88387	-325.91830	1580.76953	86.10651	-258.23114	
184	1.220	1258.64795	1023.89813	-476.04868	1262.00842	1030.16956	-244.82663	1072.05811	1063.93311	-391.30386	1072.53589	1062.20227	-294.10062	1178.63013	1090.58484	-194.40703	1172.86694	1086.68848	-515.96234	1142.97388	953.88342	-533.24402	1059.60583	540.88879	-467.24188	1036.68896	478.04456	-465.79816	1100.65466	439.32993	-422.41974	932.43555	84.98254	-419.97134	877.06293	70.05984	-367.90192	1093.88049	44.55978	-358.57974	1050.56787	31.90856	-436.78635	1202.13000	938.60999	-171.41853	1317.52380	533.82391	-220.26236	1325.53333	473.41577	-217.36513	1403.96814	464.27579	-263.21231	1426.29370	89.50172	-240.93991	1387.80798	43.58223	-300.22516	1599.38135	98.55395	-291.83435	1553.91345	71.24270	-223.33992	1083.06946	532.28442	-331.59406	959.89185	108.47286	-334.07028	1091.39038	36.93603	-388.77701	1348.83398	532.72095	-347.83594	1462.54663	116.20029	-326.14856	1597.17603	89.61421	-259.52371	
185	1.227	1266.33972	1023.08997	-475.97928	1270.48010	1029.19421	-244.69826	1079.96887	1063.12976	-390.52383	1080.75122	1061.42993	-293.28091	1187.01428	1090.05627	-194.06273	1180.44189	1085.87256	-515.48901	1150.25085	953.37231	-532.74048	1065.25024	540.93036	-467.41614	1041.69958	478.35684	-466.07077	1105.32397	438.89236	-422.76791	933.22357	86.47939	-420.52588	877.51306	72.17029	-368.42642	1094.07813	44.33306	-358.60727	1050.50562	31.72831	-436.70944	1210.67798	937.64099	-171.10393	1324.39063	532.45947	-220.87524	1333.15100	472.37823	-218.06168	1411.88953	464.42612	-264.04526	1441.27698	90.31216	-241.27687	1403.34033	43.85083	-300.40765	1614.15466	101.73309	-292.86423	1569.58899	73.71133	-224.38167	1089.20642	531.85938	-332.02142	960.64203	109.62262	-334.61096	1091.47144	36.93362	-388.84244	1355.13635	531.41840	-348.98456	1476.99341	117.51276	-326.63715	1612.42859	92.71864	-260.47113	
186	1.233	1274.20398	1022.15088	-476.41077	1278.89648	1028.27075	-244.49019	1088.42297	1062.14941	-389.72995	1089.07129	1060.66577	-292.34457	1195.56445	1089.00305	-193.38194	1187.94995	1085.14868	-514.99780	1157.63660	952.88739	-532.15320	1071.06909	541.00256	-467.64890	1046.95825	478.68054	-466.38010	1110.12842	438.49176	-423.16125	934.06372	88.06918	-421.20087	878.02563	74.43255	-369.00565	1094.13989	44.30935	-358.70532	1050.46472	31.55479	-436.59131	1219.40991	936.67639	-170.73172	1331.45496	531.28320	-221.49533	1340.86926	471.42737	-218.84433	1419.63440	464.54691	-264.96426	1455.21167	91.07934	-241.73102	1417.73572	44.22602	-300.78232	1628.07910	104.37971	-293.87015	1584.01758	75.20279	-225.80457	1095.02502	531.58191	-332.26804	961.53174	110.97502	-335.07623	1091.54065	36.92416	-388.90436	1361.47864	530.29608	-350.06094	1490.32861	118.69791	-327.20987	1626.56873	95.26604	-261.51501	
187	1.240	1282.23987	1021.39752	-476.12247	1287.28699	1027.43884	-244.38873	1096.46582	1061.36938	-388.79358	1097.42725	1059.94507	-291.29843	1204.53650	1088.50745	-192.98105	1195.04187	1084.41052	-514.59167	1165.14392	952.44989	-531.54419	1077.15356	541.02094	-467.87183	1052.32080	479.03976	-466.76886	1115.03967	438.11530	-423.60538	935.45172	90.30815	-422.73862	878.40253	77.03802	-369.58636	1094.21826	44.29326	-358.82666	1050.69226	31.79085	-436.82941	1228.25330	935.81866	-170.30318	1338.63306	530.19653	-222.05690	1348.75903	470.56854	-219.43399	1427.42139	464.58066	-265.90872	1468.05396	91.69045	-242.27116	1430.92603	44.46696	-301.19577	1640.87769	106.65069	-294.96735	1597.33728	76.79867	-226.75755	1101.37585	531.18671	-332.54556	962.50586	112.37267	-335.82095	1091.65137	36.92868	-388.97171	1367.81140	529.38251	-351.12613	1502.66809	119.66812	-327.84457	1639.48511	96.99442	-262.97217	
188	1.247	1290.48694	1020.83282	-475.64667	1295.76782	1026.69336	-244.23184	1104.54077	1060.59338	-387.76978	1105.88745	1059.28223	-290.22845	1213.05896	1087.78479	-192.26262	1203.05396	1083.79700	-513.97406	1172.80371	952.03717	-530.88654	1083.38281	541.08246	-468.16003	1057.94641	479.41852	-467.18930	1120.21912	437.76291	-423.98792	936.15588	91.84590	-423.24649	879.15350	79.55412	-370.34418	1094.29883	44.26695	-358.94299	1050.74731	31.75793	-436.88553	1237.50854	935.07153	-169.58357	1345.99365	529.27582	-222.56801	1356.76050	469.83902	-220.09862	1435.11133	464.52646	-267.01639	1479.75647	92.08198	-242.93892	1442.90991	44.57933	-301.83368	1652.61938	108.16637	-296.14764	1609.44543	78.04777	-227.47171	1107.58704	530.96698	-333.02206	963.65515	113.84685	-336.40616	1091.75806	36.91869	-389.03299	1374.37366	528.76813	-352.00598	1513.85352	120.36790	-328.61404	1651.56165	98.45329	-263.84314	
189	1.253	1299.02173	1020.25818	-474.99390	1304.37732	1025.81226	-243.96394	1112.75537	1059.88904	-386.76981	1114.35205	1058.62891	-289.18872	1221.88574	1087.21313	-191.62029	1211.03967	1083.19336	-513.36578	1180.59802	951.68097	-530.26434	1089.80981	541.16351	-468.45532	1063.80786	479.74454	-467.64093	1125.65710	437.43393	-424.40970	936.87030	93.44631	-423.54840	879.91309	82.25558	-371.22626	1094.39539	44.26336	-359.07736	1050.83618	31.74114	-436.95160	1246.18262	934.31714	-169.28769	1353.60828	528.48718	-222.98813	1364.74463	469.20563	-220.52930	1442.96277	464.35315	-268.18216	1490.30969	92.13563	-243.65964	1453.42114	44.60530	-302.48792	1663.00586	109.03627	-297.59277	1620.31384	78.01664	-229.37558	1114.28613	530.71191	-333.39532	964.76294	115.48379	-337.09122	1091.56482	36.60445	-389.05472	1381.02783	528.33905	-352.75906	1523.87366	120.71920	-329.52155	1662.34546	99.14830	-265.15433	
190	1.260	1306.27222	1019.45203	-475.51093	1313.01477	1025.10522	-243.63565	1121.03564	1059.21448	-385.81055	1122.90161	1058.04529	-288.13538	1230.86145	1086.53333	-190.91849	1219.05212	1082.62195	-512.83020	1188.48816	951.32684	-529.62201	1096.58948	541.19897	-468.74725	1069.93445	480.10550	-468.07996	1131.28906	437.07831	-424.87045	937.80743	95.22276	-424.44644	880.75793	85.19422	-372.19815	1094.49683	44.25888	-359.20444	1050.95081	31.72920	-437.01456	1255.63208	933.82806	-168.51598	1361.55786	527.91022	-223.42279	1372.86707	468.58987	-220.90311	1450.87134	464.10779	-269.33221	1499.62793	91.91791	-244.56493	1462.56946	44.34984	-303.26694	1672.23682	109.09707	-299.33624	1630.00403	77.84120	-231.02727	1120.78833	530.49915	-333.66528	965.87775	117.22822	-337.80023	1091.65613	36.56652	-389.13727	1388.08093	528.03284	-353.22028	1532.01624	120.78264	-330.31168	1671.67236	98.97923	-267.22470	
191	1.267	1314.59009	1018.93860	-475.13367	1321.70764	1024.57690	-243.27686	1129.41174	1058.58411	-384.88638	1131.53784	1057.50000	-287.00595	1239.84851	1086.02014	-190.24655	1227.28186	1082.07495	-512.20398	1196.56885	951.02386	-528.94757	1103.68457	541.20874	-469.03055	1076.23206	480.48303	-468.61560	1137.13623	436.73212	-425.29752	938.91193	97.04112	-424.59860	881.76385	88.23693	-373.32614	1094.61194	44.27478	-359.33768	1051.07837	31.73020	-437.10730	1264.49829	933.29004	-168.16968	1369.51025	527.36072	-223.66316	1381.15759	467.99609	-221.16147	1458.84326	463.70767	-270.29532	1507.88879	91.29778	-245.53198	1470.43127	43.66209	-303.93823	1680.10437	108.44462	-301.45416	1638.33801	77.37968	-232.38716	1127.72693	530.20374	-334.14651	967.14136	118.91155	-338.92465	1091.75269	36.55830	-389.24066	1395.52356	527.76483	-353.58194	1541.26440	119.71185	-331.89679	1679.83191	98.36903	-269.04883	
192	1.273	1323.09546	1018.49927	-474.71060	1330.53333	1024.06628	-242.85014	1137.99048	1057.97620	-384.00189	1140.25745	1056.97412	-286.04382	1248.42432	1085.53577	-189.58595	1235.64221	1081.59766	-511.55701	1204.73425	950.69116	-527.94299	1110.91162	541.25037	-469.40182	1082.77026	480.81418	-468.79507	1143.16809	436.29800	-425.76871	939.93469	99.01715	-425.93045	882.85315	91.49499	-374.45349	1094.73608	44.36312	-359.59991	1051.24292	31.73071	-437.19870	1273.81921	933.04846	-167.43445	1378.08057	526.89624	-223.87640	1389.41455	467.43799	-221.44884	1466.89209	463.10519	-271.04977	1514.86597	90.27059	-246.58942	1476.94958	42.69970	-304.71362	1686.80627	106.99009	-303.89349	1645.54553	75.97483	-234.44696	1134.80640	529.92676	-334.57007	968.66614	120.87440	-339.73105	1091.88818	36.51324	-389.30710	1403.38647	527.41510	-353.75497	1547.00525	118.83673	-332.96631	1686.79285	96.98570	-271.37640	
193	1.280	1331.69873	1018.08606	-474.24039	1339.42102	1023.79169	-242.37950	1146.58545	1057.43494	-383.12115	1148.98694	1056.50085	-285.14792	1257.55811	1085.05518	-188.91081	1244.21472	1081.13416	-510.85690	1213.14075	950.42029	-527.24927	1118.50830	541.20496	-469.78302	1089.64673	481.13229	-469.39395	1149.45581	435.85400	-426.36343	941.11322	101.04640	-426.84485	884.29193	94.79443	-375.82343	1094.92163	44.37019	-359.74777	1051.43457	31.74820	-437.29016	1282.74622	932.75128	-167.08592	1386.78198	526.58319	-223.96196	1397.96252	466.91617	-221.55736	1474.98962	462.31335	-271.64273	1520.72510	88.87817	-247.63036	1482.09253	41.50811	-305.47183	1692.17554	104.88495	-306.56879	1651.50818	73.90477	-236.74850	1142.07349	529.53711	-335.01584	970.13623	122.89204	-340.81262	1092.02039	36.47905	-389.41052	1411.39050	526.96362	-353.88800	1552.27380	117.33248	-334.26569	1692.44629	94.68849	-274.09250	
